<svg width="48" height="48" viewBox="0 0 48 48" fill="none" xmlns="http://www.w3.org/2000/svg">
<rect width="48" height="48" fill="#222222"/>
<g id="260628">
<path d="M-3354.67 -7556C-3354.67 -7557.1 -3353.77 -7558 -3352.67 -7558H2803.33C2804.44 -7558 2805.33 -7557.1 2805.33 -7556V1158C2805.33 1159.1 2804.44 1160 2803.33 1160H-3352.67C-3353.77 1160 -3354.67 1159.1 -3354.67 1158V-7556Z" fill="#555555"/>
<path d="M-3352.67 -7558V-7557H2803.33V-7558V-7559H-3352.67V-7558ZM2805.33 -7556H2804.33V1158H2805.33H2806.33V-7556H2805.33ZM2803.33 1160V1159H-3352.67V1160V1161H2803.33V1160ZM-3354.67 1158H-3353.67V-7556H-3354.67H-3355.67V1158H-3354.67ZM-3352.67 1160V1159C-3353.22 1159 -3353.67 1158.55 -3353.67 1158H-3354.67H-3355.67C-3355.67 1159.66 -3354.32 1161 -3352.67 1161V1160ZM2805.33 1158H2804.33C2804.33 1158.55 2803.89 1159 2803.33 1159V1160V1161C2804.99 1161 2806.33 1159.66 2806.33 1158H2805.33ZM2803.33 -7558V-7557C2803.89 -7557 2804.33 -7556.55 2804.33 -7556H2805.33H2806.33C2806.33 -7557.66 2804.99 -7559 2803.33 -7559V-7558ZM-3352.67 -7558V-7559C-3354.32 -7559 -3355.67 -7557.66 -3355.67 -7556H-3354.67H-3353.67C-3353.67 -7556.55 -3353.22 -7557 -3352.67 -7557V-7558Z" fill="white" fill-opacity="0.1"/>
<g id="PC(MO&#235;&#143;&#153;&#236;&#157;&#188;)">
<rect width="1920" height="8558" transform="translate(-1154.67 -7478)" fill="white"/>
<g id="con">
<rect width="1920" height="1936" transform="translate(-1154.67 -1242)" fill="white"/>
<g id="icons">
<g id="con_2">
<rect x="-76.8335" y="-19.5" width="201.667" height="113" rx="15.5" stroke="#DADADA"/>
<g id="series/05/number_up">
<path id="Vector 750 (Stroke)" fill-rule="evenodd" clip-rule="evenodd" d="M25.2197 34.2745C25.2197 34.871 25.7033 35.3545 26.2997 35.3545L39.2597 35.3545C39.8562 35.3545 40.3397 34.871 40.3397 34.2745C40.3397 33.678 39.8562 33.1945 39.2597 33.1945L26.2997 33.1945C25.7033 33.1945 25.2197 33.678 25.2197 34.2745Z" fill="#FACE82"/>
<path id="Vector 751 (Stroke)" fill-rule="evenodd" clip-rule="evenodd" d="M25.2197 25.6339C25.2197 26.2303 25.7033 26.7139 26.2997 26.7139L34.9397 26.7139C35.5362 26.7139 36.0197 26.2303 36.0197 25.6339C36.0197 25.0374 35.5362 24.5539 34.9397 24.5539L26.2997 24.5539C25.7033 24.5539 25.2197 25.0374 25.2197 25.6339Z" fill="#FACE82"/>
<path id="Vector 752 (Stroke)" fill-rule="evenodd" clip-rule="evenodd" d="M25.2197 16.9941C25.2197 16.3976 25.7033 15.9141 26.2997 15.9141H30.6197C31.2162 15.9141 31.6997 16.3976 31.6997 16.9941C31.6997 17.5905 31.2162 18.0741 30.6197 18.0741H26.2997C25.7033 18.0741 25.2197 17.5905 25.2197 16.9941Z" fill="#FACE82"/>
<path id="Path" d="M15.7983 34.6914L15.7983 16.6751L19.9886 20.8994C20.4996 21.3934 21.3002 21.3934 21.8112 20.8994C22.3051 20.4054 22.3051 19.5878 21.8112 19.0938L15.4236 12.6722C14.9466 12.1952 14.0949 12.1952 13.618 12.6722L7.2304 19.0938C6.73643 19.5878 6.73643 20.4054 7.2304 20.8994C7.48591 21.1379 7.81125 21.2741 8.13318 21.2741C8.45682 21.2741 8.79749 21.1379 9.03597 20.8994L13.2433 16.6751L13.2433 34.6914C13.2433 35.4068 13.8054 35.9689 14.5208 35.9689C15.2192 35.9689 15.7983 35.4068 15.7983 34.6914Z" fill="#F0A050"/>
</g>
</g>
</g>
</g>
</g>
</g>
</svg>
