<svg width="48" height="48" viewBox="0 0 48 48" fill="none" xmlns="http://www.w3.org/2000/svg">
<rect width="48" height="48" fill="#222222"/>
<g id="260628">
<path d="M-3136 -7556C-3136 -7557.1 -3135.1 -7558 -3134 -7558H3022C3023.1 -7558 3024 -7557.1 3024 -7556V1158C3024 1159.1 3023.1 1160 3022 1160H-3134C-3135.1 1160 -3136 1159.1 -3136 1158V-7556Z" fill="#555555"/>
<path d="M-3134 -7558V-7557H3022V-7558V-7559H-3134V-7558ZM3024 -7556H3023V1158H3024H3025V-7556H3024ZM3022 1160V1159H-3134V1160V1161H3022V1160ZM-3136 1158H-3135V-7556H-3136H-3137V1158H-3136ZM-3134 1160V1159C-3134.55 1159 -3135 1158.55 -3135 1158H-3136H-3137C-3137 1159.66 -3135.66 1161 -3134 1161V1160ZM3024 1158H3023C3023 1158.55 3022.55 1159 3022 1159V1160V1161C3023.66 1161 3025 1159.66 3025 1158H3024ZM3022 -7558V-7557C3022.55 -7557 3023 -7556.55 3023 -7556H3024H3025C3025 -7557.66 3023.66 -7559 3022 -7559V-7558ZM-3134 -7558V-7559C-3135.66 -7559 -3137 -7557.66 -3137 -7556H-3136H-3135C-3135 -7556.55 -3134.55 -7557 -3134 -7557V-7558Z" fill="white" fill-opacity="0.1"/>
<g id="PC(MO&#235;&#143;&#153;&#236;&#157;&#188;)">
<rect width="1920" height="8558" transform="translate(-936 -7478)" fill="white"/>
<g id="con">
<rect width="1920" height="1936" transform="translate(-936 -1242)" fill="white"/>
<g id="icons">
<g id="con_2">
<rect x="-76.8335" y="-19.5" width="201.667" height="113" rx="15.5" stroke="#DADADA"/>
<g id="series/05/plus_single-practice">
<path id="Fill 1" d="M11.8096 10.029L23.7573 6.82763C28.1113 5.66099 31.2652 7.56418 32.4779 12.0899L35.8024 24.4972C37.015 29.0229 35.2353 32.2481 30.8813 33.4147L18.9336 36.6161C14.5796 37.7827 11.4371 35.8765 10.2244 31.3508L6.89988 18.9435C5.68722 14.4178 7.45563 11.1957 11.8096 10.029Z" fill="#6BADE8"/>
<path id="Path" d="M35.4586 12.6006H21.6337C16.5808 12.6006 13.7358 15.4456 13.7358 20.4984V34.3381C13.7358 39.3613 16.5808 42.2359 21.6337 42.2359H35.4734C40.5114 42.2359 43.3712 39.3613 43.3712 34.3381V20.4984C43.3712 15.4456 40.4966 12.6006 35.4586 12.6006Z" fill="url(#paint0_linear_24_3075)"/>
<path id="Path_2" d="M33.9765 28.6467H29.7683V32.8401C29.7683 33.5217 29.22 34.0699 28.5384 34.0699C27.8568 34.0699 27.3085 33.5217 27.3085 32.8401V28.6467H23.1151C22.4335 28.6319 21.8853 28.0836 21.8853 27.402C21.8853 27.0745 22.0186 26.7648 22.2409 26.5277C22.478 26.3055 22.7891 26.1721 23.1151 26.1721H27.3085V21.9935C27.3085 21.3119 27.8568 20.7637 28.5384 20.7637C29.22 20.7637 29.7683 21.3119 29.7683 21.9935V26.1721H33.9765C34.6581 26.1721 35.2063 26.7204 35.2063 27.402C35.2063 28.0836 34.6581 28.6319 33.9765 28.6467Z" fill="white"/>
</g>
</g>
</g>
</g>
</g>
</g>
<defs>
<linearGradient id="paint0_linear_24_3075" x1="22.2845" y1="19.0833" x2="45.0234" y2="26.903" gradientUnits="userSpaceOnUse">
<stop stop-color="#C4DEF6"/>
<stop offset="1" stop-color="#6BADE8"/>
</linearGradient>
</defs>
</svg>
