<svg width="48" height="48" viewBox="0 0 48 48" fill="none" xmlns="http://www.w3.org/2000/svg">
<rect width="48" height="48" fill="#222222"/>
<g id="260628">
<path d="M-3354.67 -6776C-3354.67 -6777.1 -3353.77 -6778 -3352.67 -6778H2803.33C2804.44 -6778 2805.33 -6777.1 2805.33 -6776V1938C2805.33 1939.1 2804.44 1940 2803.33 1940H-3352.67C-3353.77 1940 -3354.67 1939.1 -3354.67 1938V-6776Z" fill="#555555"/>
<path d="M-3352.67 -6778V-6777H2803.33V-6778V-6779H-3352.67V-6778ZM2805.33 -6776H2804.33V1938H2805.33H2806.33V-6776H2805.33ZM2803.33 1940V1939H-3352.67V1940V1941H2803.33V1940ZM-3354.67 1938H-3353.67V-6776H-3354.67H-3355.67V1938H-3354.67ZM-3352.67 1940V1939C-3353.22 1939 -3353.67 1938.55 -3353.67 1938H-3354.67H-3355.67C-3355.67 1939.66 -3354.32 1941 -3352.67 1941V1940ZM2805.33 1938H2804.33C2804.33 1938.55 2803.89 1939 2803.33 1939V1940V1941C2804.99 1941 2806.33 1939.66 2806.33 1938H2805.33ZM2803.33 -6778V-6777C2803.89 -6777 2804.33 -6776.55 2804.33 -6776H2805.33H2806.33C2806.33 -6777.66 2804.99 -6779 2803.33 -6779V-6778ZM-3352.67 -6778V-6779C-3354.32 -6779 -3355.67 -6777.66 -3355.67 -6776H-3354.67H-3353.67C-3353.67 -6776.55 -3353.22 -6777 -3352.67 -6777V-6778Z" fill="white" fill-opacity="0.1"/>
<g id="PC(MO&#235;&#143;&#153;&#236;&#157;&#188;)">
<rect width="1920" height="8558" transform="translate(-1154.67 -6698)" fill="white"/>
<g id="con">
<rect width="1920" height="1936" transform="translate(-1154.67 -462)" fill="white"/>
<g id="icons">
<g id="con_2">
<rect x="-76.8335" y="-19.5" width="201.667" height="113" rx="15.5" stroke="#DADADA"/>
<g id="series/02/numbers">
<path id="Path" d="M39.5084 6.4952L27.109 3.17279C22.2607 1.87371 18.088 4.40376 16.7314 9.46649L13.6002 21.1523C12.2475 26.2007 14.5966 30.4767 19.4448 31.7758L31.8442 35.0982C36.6924 36.3973 40.8505 33.8648 42.2032 28.8164L45.3344 17.1306C46.691 12.0679 44.3566 7.79427 39.5084 6.4952Z" fill="#F0A050"/>
<path id="Vector" d="M31.6179 12.2374C32.3721 12.4394 32.9963 12.7061 33.4907 13.0373C33.9973 13.3719 34.3824 13.7401 34.6457 14.1419C34.9215 14.5471 35.0834 14.9814 35.1315 15.4448C35.1952 15.8992 35.1675 16.349 35.0482 16.7941L34.9936 16.9981C34.8047 17.7028 34.4556 18.3381 33.9462 18.9039C33.4525 19.4607 32.8058 19.9699 32.0063 20.4315L27.0546 23.259L32.674 24.7648C32.9583 24.8409 33.142 24.9962 33.225 25.2304C33.3113 25.4523 33.318 25.6993 33.2451 25.9713C33.1723 26.2433 33.0413 26.46 32.8523 26.6214C32.6666 26.7704 32.4316 26.8068 32.1472 26.7306L25.0813 24.8373C24.4878 24.6783 24.0894 24.4589 23.8861 24.1791C23.6828 23.8994 23.6391 23.5431 23.755 23.1104C23.808 22.9126 23.9072 22.7404 24.0525 22.5938C24.2101 22.4505 24.416 22.3003 24.6702 22.1431L30.1356 18.9563C30.5746 18.7028 30.9339 18.4745 31.2137 18.2711C31.4967 18.0554 31.7316 17.8467 31.9181 17.6449C32.1047 17.4431 32.2447 17.2421 32.3381 17.0419C32.4472 16.8326 32.5332 16.6105 32.5962 16.3756L32.621 16.2828C32.7304 15.8748 32.6591 15.4979 32.4072 15.1522C32.171 14.7973 31.7314 14.5338 31.0885 14.3615C30.5321 14.2124 30.0403 14.1933 29.6131 14.3041C29.1858 14.4149 28.7552 14.6374 28.3211 14.9716C28.085 15.1602 27.8322 15.2382 27.5626 15.2057C27.2931 15.1733 27.0578 15.0373 26.8569 14.798C26.656 14.5586 26.5533 14.2992 26.5487 14.0197C26.5441 13.7402 26.6726 13.4831 26.9342 13.2484C27.5046 12.7519 28.1828 12.3969 28.9688 12.1835C29.7581 11.9577 30.6412 11.9756 31.6179 12.2374Z" fill="white"/>
<path id="Path_2" d="M20.9093 14.3131L8.26747 16.5422C3.32448 17.4138 0.611907 21.4703 1.52205 26.632L3.62285 38.5462C4.53042 43.6933 8.46656 46.5759 13.4095 45.7044L26.0513 43.4753C30.9943 42.6037 33.6926 38.5512 32.785 33.4041L30.6842 21.4899C29.7741 16.3282 25.8522 13.4416 20.9093 14.3131Z" fill="url(#paint0_linear_24_3075)"/>
<path id="Vector_2" d="M17.0788 23.1045C17.4307 23.0424 17.7357 23.0699 17.9941 23.187C18.2524 23.3041 18.4126 23.5386 18.4746 23.8904L20.4418 35.0466C20.5038 35.3984 20.4335 35.6735 20.2308 35.8719C20.0281 36.0703 19.769 36.1973 19.4535 36.2529C19.1381 36.3085 18.8512 36.2778 18.5928 36.1607C18.3345 36.0436 18.1743 35.8092 18.1123 35.4573L16.45 26.0301L14.3398 27.7908C14.0664 28.0142 13.7877 28.1008 13.5037 28.0508C13.2175 27.9887 12.9781 27.837 12.7854 27.5958C12.6092 27.3766 12.5207 27.1233 12.52 26.8357C12.5193 26.548 12.6446 26.3008 12.8959 26.0938L15.6699 23.8408C15.9554 23.6153 16.207 23.4458 16.4247 23.3324C16.6424 23.219 16.8604 23.143 17.0788 23.1045Z" fill="white"/>
</g>
</g>
</g>
</g>
</g>
</g>
<defs>
<linearGradient id="paint0_linear_24_3075" x1="9.53699" y1="22.8959" x2="33.2696" y2="26.6453" gradientUnits="userSpaceOnUse">
<stop stop-color="#FFDFA1"/>
<stop offset="1" stop-color="#F0A050"/>
</linearGradient>
</defs>
</svg>
