<svg width="40" height="40" viewBox="0 0 40 40" fill="none" xmlns="http://www.w3.org/2000/svg">
<path id="Page" d="M9 9C9 7.067 10.567 5.5 12.5 5.5H22L31 14.5V31C31 32.933 29.433 34.5 27.5 34.5H12.5C10.567 34.5 9 32.933 9 31V9Z" fill="#FACE82"/>
<path id="Fold" d="M22 5.5L31 14.5H24.5C23.1193 14.5 22 13.3807 22 12V5.5Z" fill="#FFDFA1"/>
<path id="Download" d="M18.4 18.6C18.4 17.7163 19.1163 17 20 17C20.8837 17 21.6 17.7163 21.6 18.6V24.7H24.6C25.0243 24.7 25.4098 24.9476 25.5858 25.3336C25.7617 25.7196 25.6958 26.1728 25.417 26.4929L20.817 31.7729C20.6115 32.0088 20.3135 32.1441 20 32.1441C19.6865 32.1441 19.3885 32.0088 19.183 31.7729L14.583 26.4929C14.3042 26.1728 14.2383 25.7196 14.4142 25.3336C14.5902 24.9476 14.9757 24.7 15.4 24.7H18.4V18.6Z" fill="#F0A050"/>
</svg>
